<svg viewBox="0 0 8 10" fill="none" id="quill">
  <path 
    fill-rule="evenodd" 
    clip-rule="evenodd" 
    d="M7.11643 0.871887L6.72059 1.10925V0.929545L6.36386 1.05433L5.97165 1.36301L5.80059 1.72202L5.7617 1.47712L5.31479 2.00473L5.31074 2.01023L5.02417 2.46131L4.93919 2.78828L4.86247 2.34546L4.51074 2.89913L4.50725 2.90562L4.17453 3.65381L4.13235 4.09642V3.76544L4.03721 3.74393L3.89604 4.04023L3.89489 4.04283L3.75371 4.38851L3.75108 4.39706L3.65696 4.8415L3.65588 4.84127V5.40441L3.61075 5.32548L3.51076 5.0107L3.37489 5.58101L3.37353 5.58068V5.83952H3.37213L3.46031 6.20962L3.23235 5.87473V6.39254L3.37578 6.74373L3.46765 7.12934V7.31283L3.29875 7.81611H0.970394C0.381139 8.25883 0 8.96359 0 9.75737C0 9.83926 0.00405665 9.9202 0.0119799 10H4.84115C4.84907 9.9202 4.85313 9.83926 4.85313 9.75737C4.85313 8.96359 4.47199 8.25883 3.88273 7.81611H3.41733L3.56478 7.33785L4.26919 5.61305L5.2094 3.68912L5.81987 2.50641L5.91076 2.36335L5.87212 2.46068L5.30858 3.54485L5.3076 3.54683L4.36642 5.57152L4.36533 5.57404L3.718 7.19393L4.24741 7.07047L4.58638 6.76557L4.58914 6.76289L4.84583 6.49354L4.51151 6.5715L4.72278 6.4237L4.72372 6.42302L5.20329 6.07074L5.47569 5.57049L5.05827 5.78952H4.98536L5.1947 5.6326L5.19815 5.62977L5.52756 5.33348L5.52884 5.3349L5.82289 4.87204L6.00018 4.18989L5.76072 4.35742H5.65281L5.80513 4.25086L5.81029 4.24672L6.19342 3.89492L6.57941 3.13544V2.82994L6.36396 2.98066L6.29611 3.00914L6.33406 2.95604L6.56857 2.66073L6.56959 2.66154L6.81471 2.14711V1.79833L6.57941 1.94648V1.9043L6.80604 1.57135L6.80697 1.57198L6.95163 1.21776L7.11643 0.871887ZM4.17724 5.57369L3.55994 7.08521L3.47217 6.71681L3.46982 6.70949L3.33235 6.37291V6.19936L3.56765 6.54504V6.23458H3.56905L3.47353 5.83364V5.59847L3.52592 5.37857L3.75588 5.78078V4.85709L3.84799 4.42217L3.98693 4.08196L4.03235 3.98663V4.1697L4.12975 4.42523L4.22647 4.40742V4.16287L4.27253 3.67954L4.59712 2.94963L4.80811 2.61751L4.88014 3.03323L4.9778 3.03727L5.11701 2.50167L5.39331 2.06675L5.69712 1.70807L5.75235 2.05577L6.05187 1.42713L6.41261 1.14322L6.62059 1.07047V1.28582L6.88357 1.12813L6.86074 1.17603L6.85959 1.17863L6.72041 1.51944L6.47941 1.87349V2.12761L6.71471 1.97946V2.1245L6.48672 2.603L6.25496 2.89484L6.25344 2.89686L6.00977 3.23779L6.40759 3.0708L6.40804 3.07187L6.47941 3.02194V3.11149L6.11246 3.83349L5.74509 4.17082L5.33543 4.45742H5.79222L5.83512 4.4274L5.73005 4.83168L5.45559 5.26371L5.13294 5.55393L4.68522 5.88952H5.08291L5.23019 5.81224L5.12613 6.00335L4.66499 6.34209L4.24193 6.63805L4.28194 6.72771L4.54241 6.66697L4.51807 6.69251L4.19965 6.97892L3.882 7.053L4.45768 5.61243L5.39781 3.58999L5.96202 2.50455L5.96412 2.49994L6.19941 1.90735L6.11074 1.86208L5.73427 2.45467L5.73204 2.45855L5.12028 3.64374L5.11979 3.64472L4.17861 5.57064L4.17724 5.57369Z" 
    fill="black"
  />
</svg>